<svg width="357" height="159" viewBox="0 0 357 159" fill="none" xmlns="http://www.w3.org/2000/svg">
<path d="M34.784 18.648L37.28 63H28.128L27.584 44.024C27.5413 42.2533 27.52 40.6747 27.52 39.288C27.5413 37.9013 27.5733 36.6 27.616 35.384C27.6587 34.1467 27.7227 32.9093 27.808 31.672C27.9147 30.4133 28.0213 29.048 28.128 27.576L23.136 55.448H15.2L9.824 27.576C9.952 28.984 10.0587 30.3173 10.144 31.576C10.2507 32.8133 10.3253 34.0613 10.368 35.32C10.4107 36.5787 10.4427 37.9333 10.464 39.384C10.4853 40.8133 10.4747 42.4133 10.432 44.184L10.112 63H1.12L3.616 18.648H14.4L19.328 47.32L24 18.648H34.784ZM51.623 48.952C51.8577 50.808 52.3377 52.312 53.063 53.464C53.8097 54.5947 54.759 55.4267 55.911 55.96C57.063 56.472 58.3537 56.728 59.783 56.728C61.3403 56.728 62.8443 56.472 64.295 55.96C65.7457 55.448 67.143 54.7653 68.487 53.912L72.551 59.416C70.951 60.7813 69.0097 61.9013 66.727 62.776C64.4657 63.6507 61.8843 64.088 58.983 64.088C55.1003 64.088 51.847 63.32 49.223 61.784C46.599 60.2267 44.6257 58.0933 43.303 55.384C41.9803 52.6747 41.319 49.56 41.319 46.04C41.319 42.6907 41.959 39.6507 43.239 36.92C44.519 34.168 46.3857 31.9813 48.839 30.36C51.3137 28.7173 54.3323 27.896 57.895 27.896C61.1377 27.896 63.943 28.5893 66.311 29.976C68.7003 31.3627 70.5457 33.3573 71.847 35.96C73.1697 38.5627 73.831 41.688 73.831 45.336C73.831 45.912 73.8097 46.5307 73.767 47.192C73.7457 47.8533 73.703 48.44 73.639 48.952H51.623ZM57.895 34.68C56.0817 34.68 54.6203 35.3307 53.511 36.632C52.4017 37.9333 51.7297 40.0133 51.495 42.872H63.975C63.9537 40.3973 63.4737 38.4133 62.535 36.92C61.5963 35.4267 60.0497 34.68 57.895 34.68ZM100.558 14.456L110.67 15.512V63H101.71L101.198 59.256C100.259 60.5787 99.0113 61.72 97.454 62.68C95.8967 63.6187 94.0087 64.088 91.79 64.088C88.974 64.088 86.638 63.3307 84.782 61.816C82.9473 60.3013 81.5713 58.1893 80.654 55.48C79.758 52.7493 79.31 49.56 79.31 45.912C79.31 42.4133 79.854 39.3093 80.942 36.6C82.03 33.8907 83.5873 31.768 85.614 30.232C87.6407 28.6747 90.0513 27.896 92.846 27.896C94.3607 27.896 95.7687 28.1627 97.07 28.696C98.3713 29.2293 99.534 30.008 100.558 31.032V14.456ZM95.566 35.288C93.8167 35.288 92.4087 36.12 91.342 37.784C90.2753 39.4267 89.742 42.1573 89.742 45.976C89.742 48.7707 89.966 50.9467 90.414 52.504C90.862 54.04 91.4807 55.1173 92.27 55.736C93.0593 56.3547 93.966 56.664 94.99 56.664C96.1207 56.664 97.1447 56.312 98.062 55.608C99.0007 54.904 99.8327 53.944 100.558 52.728V38.072C99.854 37.1973 99.1073 36.5147 98.318 36.024C97.5287 35.5333 96.6113 35.288 95.566 35.288ZM142.869 51.768H125.429L121.909 63H116.437L130.773 18.936H137.877L152.213 63H146.389L142.869 51.768ZM126.869 47.16H141.429L134.197 23.608L126.869 47.16ZM171.388 59.288C173.969 59.288 176.007 58.808 177.5 57.848C179.015 56.8667 179.772 55.5653 179.772 53.944C179.772 52.92 179.58 52.0347 179.196 51.288C178.833 50.5413 178.076 49.8693 176.924 49.272C175.772 48.6747 174.001 48.0773 171.612 47.48C169.287 46.904 167.26 46.2427 165.532 45.496C163.825 44.728 162.492 43.736 161.532 42.52C160.593 41.304 160.124 39.7253 160.124 37.784C160.124 35.8853 160.657 34.2533 161.724 32.888C162.812 31.5013 164.316 30.4453 166.236 29.72C168.156 28.9733 170.385 28.6 172.924 28.6C175.633 28.6 177.991 28.9627 179.996 29.688C182.023 30.392 183.74 31.2667 185.148 32.312L182.78 35.96C181.5 35.0853 180.092 34.3707 178.556 33.816C177.02 33.24 175.164 32.952 172.988 32.952C170.343 32.952 168.465 33.368 167.356 34.2C166.247 35.0107 165.692 36.0667 165.692 37.368C165.692 38.3493 165.959 39.1707 166.492 39.832C167.047 40.472 167.975 41.0587 169.276 41.592C170.577 42.104 172.369 42.6693 174.652 43.288C176.849 43.864 178.759 44.5573 180.38 45.368C182.023 46.1787 183.303 47.2453 184.22 48.568C185.137 49.8907 185.596 51.5973 185.596 53.688C185.596 56.0773 184.913 58.0187 183.548 59.512C182.183 60.984 180.412 62.0613 178.236 62.744C176.081 63.4053 173.799 63.736 171.388 63.736C168.337 63.736 165.735 63.2987 163.58 62.424C161.447 61.528 159.655 60.4507 158.204 59.192L161.276 55.64C162.599 56.728 164.113 57.6133 165.82 58.296C167.548 58.9573 169.404 59.288 171.388 59.288ZM209.763 59.288C212.344 59.288 214.382 58.808 215.875 57.848C217.39 56.8667 218.147 55.5653 218.147 53.944C218.147 52.92 217.955 52.0347 217.571 51.288C217.208 50.5413 216.451 49.8693 215.299 49.272C214.147 48.6747 212.376 48.0773 209.987 47.48C207.662 46.904 205.635 46.2427 203.907 45.496C202.2 44.728 200.867 43.736 199.907 42.52C198.968 41.304 198.499 39.7253 198.499 37.784C198.499 35.8853 199.032 34.2533 200.099 32.888C201.187 31.5013 202.691 30.4453 204.611 29.72C206.531 28.9733 208.76 28.6 211.299 28.6C214.008 28.6 216.366 28.9627 218.371 29.688C220.398 30.392 222.115 31.2667 223.523 32.312L221.155 35.96C219.875 35.0853 218.467 34.3707 216.931 33.816C215.395 33.24 213.539 32.952 211.363 32.952C208.718 32.952 206.84 33.368 205.731 34.2C204.622 35.0107 204.067 36.0667 204.067 37.368C204.067 38.3493 204.334 39.1707 204.867 39.832C205.422 40.472 206.35 41.0587 207.651 41.592C208.952 42.104 210.744 42.6693 213.027 43.288C215.224 43.864 217.134 44.5573 218.755 45.368C220.398 46.1787 221.678 47.2453 222.595 48.568C223.512 49.8907 223.971 51.5973 223.971 53.688C223.971 56.0773 223.288 58.0187 221.923 59.512C220.558 60.984 218.787 62.0613 216.611 62.744C214.456 63.4053 212.174 63.736 209.763 63.736C206.712 63.736 204.11 63.2987 201.955 62.424C199.822 61.528 198.03 60.4507 196.579 59.192L199.651 55.64C200.974 56.728 202.488 57.6133 204.195 58.296C205.923 58.9573 207.779 59.288 209.763 59.288ZM253.738 29.304V58.744H263.242V63H237.962V58.744H248.362V33.56H238.282V29.304H253.738ZM249.45 13.528C250.645 13.528 251.594 13.8907 252.298 14.616C253.023 15.3413 253.386 16.2267 253.386 17.272C253.386 18.36 253.023 19.2773 252.298 20.024C251.594 20.7493 250.645 21.112 249.45 21.112C248.319 21.112 247.391 20.7493 246.666 20.024C245.941 19.2773 245.578 18.36 245.578 17.272C245.578 16.2267 245.941 15.3413 246.666 14.616C247.391 13.8907 248.319 13.528 249.45 13.528ZM286.513 59.288C289.094 59.288 291.132 58.808 292.625 57.848C294.14 56.8667 294.897 55.5653 294.897 53.944C294.897 52.92 294.705 52.0347 294.321 51.288C293.958 50.5413 293.201 49.8693 292.049 49.272C290.897 48.6747 289.126 48.0773 286.737 47.48C284.412 46.904 282.385 46.2427 280.657 45.496C278.95 44.728 277.617 43.736 276.657 42.52C275.718 41.304 275.249 39.7253 275.249 37.784C275.249 35.8853 275.782 34.2533 276.849 32.888C277.937 31.5013 279.441 30.4453 281.361 29.72C283.281 28.9733 285.51 28.6 288.049 28.6C290.758 28.6 293.116 28.9627 295.121 29.688C297.148 30.392 298.865 31.2667 300.273 32.312L297.905 35.96C296.625 35.0853 295.217 34.3707 293.681 33.816C292.145 33.24 290.289 32.952 288.113 32.952C285.468 32.952 283.59 33.368 282.481 34.2C281.372 35.0107 280.817 36.0667 280.817 37.368C280.817 38.3493 281.084 39.1707 281.617 39.832C282.172 40.472 283.1 41.0587 284.401 41.592C285.702 42.104 287.494 42.6693 289.777 43.288C291.974 43.864 293.884 44.5573 295.505 45.368C297.148 46.1787 298.428 47.2453 299.345 48.568C300.262 49.8907 300.721 51.5973 300.721 53.688C300.721 56.0773 300.038 58.0187 298.673 59.512C297.308 60.984 295.537 62.0613 293.361 62.744C291.206 63.4053 288.924 63.736 286.513 63.736C283.462 63.736 280.86 63.2987 278.705 62.424C276.572 61.528 274.78 60.4507 273.329 59.192L276.401 55.64C277.724 56.728 279.238 57.6133 280.945 58.296C282.673 58.9573 284.529 59.288 286.513 59.288ZM340.184 61.304C339.032 62.072 337.635 62.6693 335.992 63.096C334.349 63.5227 332.739 63.736 331.16 63.736C327.533 63.736 324.739 62.7867 322.776 60.888C320.813 58.9893 319.832 56.5467 319.832 53.56V33.464H312.088V29.304H319.832V21.656L325.208 21.016V29.304H336.856L336.216 33.464H325.208V53.496C325.208 55.3733 325.699 56.8027 326.68 57.784C327.683 58.7653 329.336 59.256 331.64 59.256C332.899 59.256 334.061 59.1067 335.128 58.808C336.195 58.5093 337.187 58.1253 338.104 57.656L340.184 61.304Z" fill="#121212"/>
<rect y="68" width="112" height="9" fill="#0053AB"/>
</svg>
