<svg width="58" height="58" viewBox="0 0 58 58" fill="none" xmlns="http://www.w3.org/2000/svg">
<path d="M1.5 7.97437C1.5 6.04137 3.067 4.47437 5 4.47437H52.0492C53.9822 4.47437 55.5492 6.04137 55.5492 7.97436V53C55.5492 54.933 53.9822 56.5 52.0492 56.5H5C3.067 56.5 1.5 54.933 1.5 53V7.97437Z" stroke="#0053AB" stroke-width="3"/>
<rect x="9.25122" width="4.62561" height="8.92308" rx="2.3128" fill="#0053AB"/>
<rect x="27.7537" width="4.62561" height="8.92308" rx="2.3128" fill="#0053AB"/>
<rect x="37.0049" width="4.62561" height="8.92308" rx="2.3128" fill="#0053AB"/>
<rect x="46.256" width="4.62561" height="8.92308" rx="2.3128" fill="#0053AB"/>
<rect x="18.5024" width="4.62561" height="8.92308" rx="2.3128" fill="#0053AB"/>
<line x1="1.54187" y1="16.3462" x2="53.9654" y2="16.3462" stroke="#0053AB" stroke-width="3"/>
<rect x="12.335" y="23.7949" width="6.16748" height="5.94872" fill="#0053AB"/>
<rect x="24.6699" y="23.7949" width="6.16748" height="5.94872" fill="#0053AB"/>
<rect x="37.0049" y="23.7949" width="6.16748" height="5.94872" fill="#0053AB"/>
<rect x="37.0049" y="34.2051" width="6.16748" height="5.94872" fill="#0053AB"/>
<rect x="24.6699" y="34.2051" width="6.16748" height="5.94872" fill="#0053AB"/>
<rect x="12.335" y="34.2051" width="6.16748" height="5.94872" fill="#0053AB"/>
<rect x="12.335" y="44.6154" width="6.16748" height="5.94872" fill="#0053AB"/>
<rect x="24.6699" y="44.6154" width="6.16748" height="5.94872" fill="#0053AB"/>
<rect x="37.0049" y="44.6154" width="6.16748" height="5.94872" fill="#0053AB"/>
<rect x="12.335" y="34.2051" width="6.16748" height="5.94872" fill="#0053AB"/>
</svg>
