<svg width="39" height="39" viewBox="0 0 39 39" fill="none" xmlns="http://www.w3.org/2000/svg">
<path d="M39 19.5C39 30.2696 30.2696 39 19.5 39C8.73045 39 0 30.2696 0 19.5C0 8.73045 8.73045 0 19.5 0C30.2696 0 39 8.73045 39 19.5Z" fill="#333333"/>
<path d="M25.8434 10.3373C25.8434 13.7109 23.1085 16.4458 19.7349 16.4458C16.3613 16.4458 13.6265 13.7109 13.6265 10.3373C13.6265 6.96375 16.3613 4.22892 19.7349 4.22892C23.1085 4.22892 25.8434 6.96375 25.8434 10.3373Z" fill="white"/>
<path d="M32.4084 28.3083C32.7421 30.6538 26.7313 29.9837 19.7283 29.9837C12.7253 29.9837 7.04819 30.6538 7.04819 28.3083C7.04819 22.0163 12.7253 16.9157 19.7283 16.9157C26.7313 16.9157 32.4084 22.0163 32.4084 28.3083Z" fill="white"/>
</svg>
