<svg width="65" height="59" viewBox="0 0 65 59" fill="none" xmlns="http://www.w3.org/2000/svg">
<path d="M50.662 58H38.9132V39.2827C38.9132 37.7469 37.6078 37.3629 36.9551 37.3629H28.1435C26.577 37.3629 26.1854 38.3228 26.1854 38.8027V58H15.4157C12.2827 57.2321 11.4994 56.5602 11.0099 53.2007V27.2844L5.62504 31.6038C2.68784 32.5636 0.24021 30.6439 1.21926 26.8044C10.3572 19.1255 29.0247 3.38377 30.5912 1.84798C32.1577 0.312203 33.5284 1.20808 34.0179 1.84798L44.3125 10.8276L58.0938 22.6207L63.8794 27.2844C64.6626 31.5078 61.4317 32.0837 59.9631 32.0837L54.5782 27.7643V52.7208C54.5782 55.0244 51.9674 57.2001 50.662 58Z" fill="#0053AB" stroke="#0053AB"/>
</svg>
