<svg width="33" height="34" viewBox="0 0 33 34" fill="none" xmlns="http://www.w3.org/2000/svg">
<g clip-path="url(#clip0_230_353)">
<path d="M18.8309 17C18.8309 18.6503 17.5704 19.9883 16.0156 19.9883C14.4609 19.9883 13.2004 18.6503 13.2004 17C13.2004 15.3497 14.4609 14.0117 16.0156 14.0117C17.5704 14.0117 18.8309 15.3497 18.8309 17Z" fill="#0053AB"/>
<path d="M20.7703 7.96875H11.261C9.1911 7.96875 7.50732 9.75601 7.50732 11.9531V22.0469C7.50732 24.244 9.1911 26.0312 11.261 26.0312H20.7703C22.8402 26.0312 24.5239 24.244 24.5239 22.0469V11.9531C24.5239 9.75601 22.8402 7.96875 20.7703 7.96875ZM16.0156 21.9805C13.4284 21.9805 11.3235 19.7463 11.3235 17C11.3235 14.2537 13.4284 12.0195 16.0156 12.0195C18.6029 12.0195 20.7077 14.2537 20.7077 17C20.7077 19.7463 18.6029 21.9805 16.0156 21.9805ZM21.3959 12.2852C20.8775 12.2852 20.4575 11.8392 20.4575 11.2891C20.4575 10.7389 20.8775 10.293 21.3959 10.293C21.9142 10.293 22.3343 10.7389 22.3343 11.2891C22.3343 11.8392 21.9142 12.2852 21.3959 12.2852Z" fill="#0053AB"/>
<path d="M23.5855 0H8.44574C3.78885 0 0 4.02173 0 8.96484V25.0352C0 29.9783 3.78885 34 8.44574 34H23.5855C28.2424 34 32.0312 29.9783 32.0312 25.0352V8.96484C32.0312 4.02173 28.2424 0 23.5855 0ZM26.4008 22.0469C26.4008 25.3423 23.8749 28.0234 20.7703 28.0234H11.261C8.15639 28.0234 5.63049 25.3423 5.63049 22.0469V11.9531C5.63049 8.65771 8.15639 5.97656 11.261 5.97656H20.7703C23.8749 5.97656 26.4008 8.65771 26.4008 11.9531V22.0469Z" fill="#0053AB"/>
</g>
<defs>
<clipPath id="clip0_230_353">
<rect width="32.0312" height="34" fill="white"/>
</clipPath>
</defs>
</svg>
