<svg width="63" height="64" viewBox="0 0 63 64" fill="none" xmlns="http://www.w3.org/2000/svg">
<path d="M50.4391 36.4999V46.9999H52.4391C59.9391 48.9999 57.4391 56.4999 52.4391 56.4999H36.4391M50.4391 36.4999C64.9391 36.4999 65.4391 14.9999 50.4391 14.9999C49.9391 14.7789 48.2391 14.7032 45.4391 16.1684M50.4391 36.4999C35.9391 34.5 37.9391 19 45.4391 16.1684M45.4391 16.1684C44.1408 13.956 40.9391 8.75861 32.9391 8.75861M32.9391 8.75861C31.8428 8.59237 30.6762 8.49993 29.4391 8.49993C27.835 8.4999 25.9283 8.49988 23.9137 8.75861M32.9391 8.75861C33.2725 6.33905 32.8054 2 27.9391 2C23.9137 2 23.2555 7.00572 23.9137 8.75861M23.9137 8.75861C15.253 9.8709 5.93915 10.5 7.43909 46.9999C-0.0608969 46.9999 0.439148 57.4999 7.43909 56.4999H23.9137M13.4391 48.0437H26.4391L30.4391 48L32.9391 48.0437M23.9137 56.4999C23.7555 58.1666 24.7823 62.5 30.4391 62.5C36.4391 62.5 36.7725 58.8333 36.4391 56.4999M23.9137 56.4999H36.4391M50.4391 21V25.5L46.9391 29" stroke="#0053AB" stroke-width="3"/>
</svg>
