<svg width="33" height="34" viewBox="0 0 33 34" fill="none" xmlns="http://www.w3.org/2000/svg">
<g clip-path="url(#clip0_230_343)">
<path d="M27.9759 0H4.6804C3.52196 0 2.41097 0.488473 1.59183 1.35796C0.772688 2.22745 0.3125 3.40672 0.3125 4.63636L0.3125 29.3636C0.3125 30.5933 0.772688 31.7726 1.59183 32.642C2.41097 33.5115 3.52196 34 4.6804 34H27.9759C29.1343 34 30.2453 33.5115 31.0644 32.642C31.8836 31.7726 32.3438 30.5933 32.3438 29.3636V4.63636C32.3438 3.40672 31.8836 2.22745 31.0644 1.35796C30.2453 0.488473 29.1343 0 27.9759 0ZM11.2322 26.9064C11.2325 27.0006 11.2152 27.094 11.1814 27.1812C11.1475 27.2684 11.0978 27.3476 11.0351 27.4144C10.9724 27.4812 10.8979 27.5341 10.8159 27.5703C10.7338 27.6064 10.6459 27.625 10.557 27.625H7.67969C7.59071 27.6253 7.50257 27.6068 7.42032 27.5708C7.33807 27.5348 7.26334 27.4819 7.20042 27.4151C7.13751 27.3483 7.08765 27.269 7.05371 27.1817C7.01977 27.0944 7.00242 27.0008 7.00266 26.9064V14.1023C7.00266 13.9117 7.07399 13.7289 7.20096 13.5941C7.32793 13.4593 7.50013 13.3836 7.67969 13.3836H10.557C10.7363 13.3841 10.908 13.4601 11.0346 13.5948C11.1612 13.7295 11.2322 13.912 11.2322 14.1023V26.9064ZM9.11745 12.1705C8.57752 12.1705 8.04972 12.0005 7.60078 11.6821C7.15185 11.3637 6.80194 10.9111 6.59532 10.3816C6.3887 9.85215 6.33464 9.26951 6.43997 8.70741C6.54531 8.1453 6.80531 7.62898 7.1871 7.22372C7.56889 6.81847 8.05531 6.54249 8.58487 6.43068C9.11442 6.31887 9.66332 6.37625 10.1622 6.59558C10.661 6.8149 11.0873 7.18631 11.3873 7.66284C11.6873 8.13937 11.8474 8.69961 11.8474 9.27273C11.8474 10.0413 11.5598 10.7783 11.0478 11.3217C10.5358 11.8652 9.84148 12.1705 9.11745 12.1705ZM26.2724 26.9566C26.2726 27.0434 26.2567 27.1295 26.2255 27.2097C26.1943 27.29 26.1484 27.3629 26.0906 27.4243C26.0328 27.4857 25.964 27.5344 25.8884 27.5675C25.8128 27.6006 25.7318 27.6175 25.6499 27.6173H22.556C22.4742 27.6175 22.3932 27.6006 22.3175 27.5675C22.2419 27.5344 22.1732 27.4857 22.1154 27.4243C22.0575 27.3629 22.0117 27.29 21.9805 27.2097C21.9493 27.1295 21.9334 27.0434 21.9336 26.9566V20.9583C21.9336 20.0619 22.1811 17.0328 19.726 17.0328C17.8241 17.0328 17.4365 19.1057 17.36 20.0368V26.9643C17.3601 27.1379 17.2957 27.3045 17.181 27.4281C17.0662 27.5517 16.9102 27.6225 16.7467 27.625H13.7583C13.6767 27.625 13.5958 27.6079 13.5204 27.5747C13.445 27.5414 13.3765 27.4927 13.3189 27.4314C13.2612 27.37 13.2155 27.2971 13.1845 27.217C13.1534 27.1369 13.1375 27.051 13.1377 26.9643V14.0462C13.1375 13.9596 13.1534 13.8737 13.1845 13.7936C13.2155 13.7134 13.2612 13.6406 13.3189 13.5792C13.3765 13.5178 13.445 13.4691 13.5204 13.4359C13.5958 13.4027 13.6767 13.3856 13.7583 13.3856H16.7467C16.9118 13.3856 17.0701 13.4552 17.1868 13.5791C17.3036 13.703 17.3691 13.871 17.3691 14.0462V15.1628C18.0753 14.0366 19.1218 13.1711 21.3548 13.1711C26.3015 13.1711 26.2687 18.0741 26.2687 20.767L26.2724 26.9566Z" fill="#0053AB"/>
</g>
<defs>
<clipPath id="clip0_230_343">
<rect width="32.0312" height="34" fill="white" transform="translate(0.3125)"/>
</clipPath>
</defs>
</svg>
