<svg width="33" height="34" viewBox="0 0 33 34" fill="none" xmlns="http://www.w3.org/2000/svg">
<g clip-path="url(#clip0_230_347)">
<path d="M14.7633 19.7424L19.2055 17.0068L14.7633 14.2577V19.7424Z" fill="#0053AB"/>
<path d="M16.9844 0C13.8168 0 10.7203 0.997033 8.08658 2.86502C5.45282 4.733 3.40006 7.38804 2.18787 10.4944C0.975689 13.6007 0.658527 17.0189 1.27649 20.3165C1.89446 23.6142 3.4198 26.6433 5.65963 29.0208C7.89945 31.3983 10.7532 33.0174 13.8599 33.6734C16.9666 34.3293 20.1868 33.9926 23.1133 32.706C26.0398 31.4193 28.5411 29.2403 30.3009 26.4447C32.0607 23.6491 33 20.3623 33 17C33 12.4913 31.3127 8.1673 28.3091 4.97919C25.3056 1.79107 21.232 0 16.9844 0ZM25.4137 20.0086C25.4139 20.4532 25.3317 20.8935 25.1716 21.3044C25.0115 21.7152 24.7766 22.0886 24.4805 22.4031C24.1845 22.7176 23.8329 22.9671 23.4459 23.1373C23.0589 23.3075 22.6442 23.3951 22.2253 23.3951H11.7435C11.3246 23.3951 10.9098 23.3075 10.5229 23.1373C10.1359 22.9671 9.78431 22.7176 9.48821 22.4031C9.19212 22.0886 8.95731 21.7152 8.7972 21.3044C8.63709 20.8935 8.55483 20.4532 8.55511 20.0086V13.9914C8.55483 13.5468 8.63709 13.1065 8.7972 12.6956C8.95731 12.2848 9.19212 11.9114 9.48821 11.5969C9.78431 11.2824 10.1359 11.0329 10.5229 10.8627C10.9098 10.6925 11.3246 10.6049 11.7435 10.6049H22.2253C22.6442 10.6049 23.0589 10.6925 23.4459 10.8627C23.8329 11.0329 24.1845 11.2824 24.4805 11.5969C24.7766 11.9114 25.0115 12.2848 25.1716 12.6956C25.3317 13.1065 25.4139 13.5468 25.4137 13.9914V20.0086Z" fill="#0053AB"/>
</g>
<defs>
<clipPath id="clip0_230_347">
<rect width="32.0312" height="34" fill="white" transform="translate(0.96875)"/>
</clipPath>
</defs>
</svg>
